{"title":"The Terminator (1984) - REMASTERED (Portable).m4v","uid":11222878,"size":2525218611,"categoryP":"video","categoryS":"movies","magnet":"?xt=urn:btih:44f8b1b7a667f909ff41f28362b57078a9f5c4e7&amp;dn=The+Terminator+%281984%29+-+REMASTERED+%28Portable%29.m4v&amp;tr=udp%3A%2F%2Ftracker.openbittorrent.com%3A80&amp;tr=udp%3A%2F%2Fopen.demonii.com%3A1337&amp;tr=udp%3A%2F%2Ftracker.coppersurfer.tk%3A6969&amp;tr=udp%3A%2F%2Fexodus.desync.com%3A6969","seeders":1,"leechers":0,"uploader":"arctictpb","files":1,"time":1413406551,"description":"General\nComplete name : The Terminator (1984) - REMASTERED (Portable).m4v\nFormat : MPEG-4\nFormat profile : Base Media / Version 2\nCodec ID : mp42\nFile size : 2.35 GiB\nDuration : 1h 47mn\nOverall bit rate mode : Variable\nOverall bit rate : 3 135 Kbps\nMovie name : The Terminator\nPerformer : Arnold Schwarzenegger, Michael Biehn, Linda Hamilton, Paul Winfield, Lance Henriksen, Bess Motta, Earl Boen, Rick Rossovich, Bill Paxton, Brian Thompson, Franco Columbu, Dick Miller\nGenre : Action, Thriller, Science Fiction\nContentType : Short Film\nDescription : In the post-apocalyptic future, reigning tyrannical supercomputers teleport a cyborg assassin known as the &quot;Terminator&quot; back to 1984 to snuff Sarah Connor, whose unborn son is destined to lead insurgents against 21st century mechanical hegemony. Meanwhile, the human-resistance movement dispatches a lone warrior to safeguard Sarah. Can he stop the virtually indestructible killing machine?\nRecorded date : 1984-10-26\nEncoded date : UTC 2013-04-08 18:29:17\nTagged date : UTC 2013-04-10 06:53:05\nWriting application : HandBrake 5385svn 2013040801\nCover : Yes\nRating : None\nLongDescription : In the post-apocalyptic future, reigning tyrannical supercomputers teleport a cyborg assassin known as the &quot;Terminator&quot; back to 1984 to snuff Sarah Connor, whose unborn son is destined to lead insurgents against 21st century mechanical hegemony. Meanwhile, the human-resistance movement dispatches a lone warrior to safeguard Sarah. Can he stop the virtually indestructible killing machine?\n\nVideo #1\nID : 1\nFormat : AVC\nFormat/Info : Advanced Video Codec\nFormat profile : &lt;a class=&quot;__cf_email__&quot; href=&quot;/cdn-cgi/l/email-protection&quot; data-cfemail=&quot;88c0e1efe0c8c4bba6b9&quot;&gt;[email&amp;#160;protected]&lt;/a&gt;&lt;script cf-hash='f9e31' type=&quot;text/javascript&quot;&gt;\n/* &lt;![CDATA[ */!function(){try{var t=&quot;currentScript&quot;in document?document.currentScript:function(){for(var t=document.getElementsByTagName(&quot;script&quot;),e=t.length;e--;)if(t[e].getAttribute(&quot;cf-hash&quot;))return t[e]}();if(t&amp;&amp;t.previousSibling){var e,r,n,i,c=t.previousSibling,a=c.getAttribute(&quot;data-cfemail&quot;);if(a){for(e=&quot;&quot;,r=parseInt(a.substr(0,2),16),n=2;a.length-n;n+=2)i=parseInt(a.substr(n,2),16)^r,e+=String.fromCharCode(i);e=document.createTextNode(e),c.parentNode.replaceChild(e,c)}}}catch(u){}}();/* ]]&gt; */&lt;/script&gt;\nFormat settings, CABAC : Yes\nFormat settings, ReFrames : 4 frames\nCodec ID : avc1\nCodec ID/Info : Advanced Video Coding\nDuration : 1h 47mn\nBit rate : 2 961 Kbps\nWidth : 960 pixels\nHeight : 520 pixels\nDisplay aspect ratio : 1.85:1\nFrame rate mode : Variable\nFrame rate : 23.976 fps\nMinimum frame rate : 23.810 fps\nMaximum frame rate : 30.000 fps\nColor space : YUV\nChroma subsampling : 4:2:0\nBit depth : 8 bits\nScan type : Progressive\nBits/(Pixel*Frame) : 0.247\nStream size : 2.22 GiB (94%)\nWriting library : x264 core 130\nEncoding settings : cabac=1 / ref=4 / deblock=1:0:0 / analyse=0x3:0x133 / me=umh / subme=10 / psy=1 / psy_rd=1.00:0.15 / mixed_ref=1 / me_range=32 / chroma_me=1 / trellis=2 / 8x8dct=1 / cqm=0 / deadzone=21,11 / fast_pskip=1 / chroma_qp_offset=-3 / threads=12 / lookahead_threads=1 / sliced_threads=0 / nr=0 / decimate=1 / interlaced=0 / bluray_compat=0 / constrained_intra=0 / bframes=4 / b_pyramid=2 / b_adapt=2 / b_bias=0 / direct=3 / weightb=1 / open_gop=0 / weightp=2 / keyint=300 / keyint_min=30 / scenecut=40 / intra_refresh=0 / rc_lookahead=60 / rc=crf / mbtree=1 / crf=19.0 / qcomp=0.60 / qpmin=0 / qpmax=69 / qpstep=4 / vbv_maxrate=17500 / vbv_bufsize=17500 / crf_max=0.0 / nal_hrd=none / ip_ratio=1.40 / aq=1:1.00\nLanguage : English\nEncoded date : UTC 2013-04-08 18:29:17\nTagged date : UTC 2013-04-08 20:37:49\nColor primaries : BT.709\nTransfer characteristics : BT.709\nMatrix coefficients : BT.709\n\nVideo #2\nID : 4\nFormat : JPEG\nCodec ID : jpeg\nDuration : 1h 47mn\nSource duration : 1h 47mn\nSource_Duration_LastFrame : -2mn 35s\nBit rate mode : Variable\nBit rate : 1 006 bps\nWidth : 640 pixels\nHeight : 346 pixels\nDisplay aspect ratio : 1.85:1\nFrame rate mode : Constant\nFrame rate : 0.003 fps\nColor space : YUV\nChroma subsampling : 4:2:0\nBit depth : 8 bits\nCompression mode : Lossy\nBits/(Pixel*Frame) : 1.514\nStream size : 860 KiB (0%)\nSource stream size : 894 KiB (0%)\nLanguage : English\nEncoded date : UTC 2013-04-10 06:53:03\nTagged date : UTC 2013-04-10 06:53:04\n\nAudio\nID : 2\nFormat : AAC\nFormat/Info : Advanced Audio Codec\nFormat profile : LC\nCodec ID : 40\nDuration : 1h 47mn\nBit rate mode : Variable\nBit rate : 164 Kbps\nMaximum bit rate : 276 Kbps\nChannel(s) : 2 channels\nChannel positions : Front: L R\nSampling rate : 48.0 KHz\nCompression mode : Lossy\nStream size : 126 MiB (5%)\nLanguage : English\nEncoded date : UTC 2013-04-08 18:29:17\nTagged date : UTC 2013-04-08 20:37:48","torrent":{"xt":"urn:btih:44f8b1b7a667f909ff41f28362b57078a9f5c4e7","amp;dn":"The+Terminator+%281984%29+-+REMASTERED+%28Portable%29.m4v","amp;tr":["udp%3A%2F%2Ftracker.openbittorrent.com%3A80","udp%3A%2F%2Fopen.demonii.com%3A1337","udp%3A%2F%2Ftracker.coppersurfer.tk%3A6969","udp%3A%2F%2Fexodus.desync.com%3A6969"],"infoHash":"44f8b1b7a667f909ff41f28362b57078a9f5c4e7","infoHashBuffer":{"type":"Buffer","data":[68,248,177,183,166,103,249,9,255,65,242,131,98,181,112,120,169,245,196,231]},"announce":[],"urlList":[]}}